<?xml version="1.0" encoding="UTF-8" standalone="no"?>
<!-- Created with Inkscape (http://www.inkscape.org/) -->

<svg
   xmlns:dc="http://purl.org/dc/elements/1.1/"
   xmlns:cc="http://creativecommons.org/ns#"
   xmlns:rdf="http://www.w3.org/1999/02/22-rdf-syntax-ns#"
   xmlns:svg="http://www.w3.org/2000/svg"
   xmlns="http://www.w3.org/2000/svg"
   xmlns:sodipodi="http://sodipodi.sourceforge.net/DTD/sodipodi-0.dtd"
   xmlns:inkscape="http://www.inkscape.org/namespaces/inkscape"
   version="1.1"
   width="32"
   height="37"
   id="svg2"
   sodipodi:docname="marker_city.svg"
   inkscape:version="0.92.4 (5da689c313, 2019-01-14)"
   inkscape:export-filename="C:\Users\carte\Desktop\Maps\Rendered\AmandalaMap\icons\marker_city.png"
   inkscape:export-xdpi="96"
   inkscape:export-ydpi="96">
  <sodipodi:namedview
     pagecolor="#ffffff"
     bordercolor="#666666"
     borderopacity="1"
     objecttolerance="10"
     gridtolerance="10"
     guidetolerance="10"
     inkscape:pageopacity="0"
     inkscape:pageshadow="2"
     inkscape:window-width="1920"
     inkscape:window-height="1017"
     id="namedview3739"
     showgrid="false"
     inkscape:zoom="16"
     inkscape:cx="12.084194"
     inkscape:cy="20.685489"
     inkscape:window-x="1912"
     inkscape:window-y="-8"
     inkscape:window-maximized="1"
     inkscape:current-layer="svg2" />
  <defs
     id="defs4">
    <marker
       inkscape:stockid="Arrow1Lstart"
       orient="auto"
       refY="0.0"
       refX="0.0"
       id="Arrow1Lstart"
       style="overflow:visible"
       inkscape:isstock="true">
      <path
         id="path7435"
         d="M 0.0,0.0 L 5.0,-5.0 L -12.5,0.0 L 5.0,5.0 L 0.0,0.0 z "
         style="fill-rule:evenodd;stroke:#000000;stroke-width:1.0pt"
         transform="scale(0.8) translate(12.5,0)" />
    </marker>
    <inkscape:perspective
       sodipodi:type="inkscape:persp3d"
       inkscape:vp_x="0 : 18.5 : 1"
       inkscape:vp_y="0 : 1000 : 0"
       inkscape:vp_z="32 : 18.5 : 1"
       inkscape:persp3d-origin="16 : 12.333333 : 1"
       id="perspective7330" />
    <filter
       x="-0.25"
       y="-0.25"
       width="1.5"
       height="1.5"
       id="filter3802">
      <feGaussianBlur
         result="blur"
         stdDeviation="2"
         in="SourceAlpha"
         id="feGaussianBlur3804" />
      <feColorMatrix
         values="1 0 0 0 0 0 1 0 0 0 0 0 1 0 0 0 0 0 0.5 0 "
         type="matrix"
         result="bluralpha"
         id="feColorMatrix3806" />
      <feOffset
         result="offsetBlur"
         dy="0"
         dx="0"
         in="bluralpha"
         id="feOffset3808" />
      <feMerge
         id="feMerge3810">
        <feMergeNode
           in="offsetBlur"
           id="feMergeNode3812" />
        <feMergeNode
           in="SourceGraphic"
           id="feMergeNode3814" />
      </feMerge>
    </filter>
  </defs>
  <metadata
     id="metadata7">
    <rdf:RDF>
      <cc:Work
         rdf:about="">
        <dc:format>image/svg+xml</dc:format>
        <dc:type
           rdf:resource="http://purl.org/dc/dcmitype/StillImage" />
        <dc:title />
      </cc:Work>
    </rdf:RDF>
  </metadata>
  <rect
     style="opacity:1;fill:#009ece;fill-opacity:1;stroke:#0f0f0f;stroke-width:0.63600074;stroke-linecap:butt;stroke-linejoin:round;stroke-miterlimit:4;stroke-dasharray:none;stroke-dashoffset:0;stroke-opacity:1;paint-order:normal"
     id="rect6766"
     width="20"
     height="20"
     x="-34.393322"
     y="-11.741517"
     transform="matrix(-0.70634539,-0.70786735,0.70634539,-0.70786735,0,0)" />
  <g
     sodipodi:type="inkscape:box3d"
     id="g7332"
     style="opacity:1;fill:#40a0b0;fill-opacity:0;stroke:#0f0f0f;stroke-width:0.63599998;stroke-linecap:butt;stroke-linejoin:round;stroke-miterlimit:4;stroke-dasharray:none;stroke-dashoffset:0;stroke-opacity:1;paint-order:normal"
     inkscape:perspectiveID="#perspective7330"
     inkscape:corner0="0.087487532 : 0.013361955 : 0 : 1"
     inkscape:corner7="-0.26786051 : 0.0067741991 : 0.25 : 1">
    <path
       sodipodi:type="inkscape:box3dside"
       id="path7334"
       style="fill:#353564;fill-rule:evenodd;stroke:none;stroke-linejoin:round"
       inkscape:box3dsidetype="6"
       d="m 14.712812,11.883567 v 6.057776 l 3.231281,0.104423 v -4.925471 z"
       points="14.712812,17.941343 17.944093,18.045766 17.944093,13.120295 14.712812,11.883567 " />
    <path
       sodipodi:type="inkscape:box3dside"
       id="path7344"
       style="fill:#e9e9ff;fill-rule:evenodd;stroke:none;stroke-linejoin:round"
       inkscape:box3dsidetype="11"
       d="m 17.944093,13.120295 6.492354,-1.946432 v 6.707557 l -6.492354,0.164346 z"
       points="24.436447,11.173863 24.436447,17.88142 17.944093,18.045766 17.944093,13.120295 " />
    <path
       sodipodi:type="inkscape:box3dside"
       id="path7336"
       style="fill:#4d4d9f;fill-rule:evenodd;stroke:none;stroke-linejoin:round"
       inkscape:box3dsidetype="5"
       d="m 14.712812,11.883567 7.140947,-3.2113226 2.582688,2.5016186 -6.492354,1.946432 z"
       points="21.853759,8.6722444 24.436447,11.173863 17.944093,13.120295 14.712812,11.883567 " />
    <path
       sodipodi:type="inkscape:box3dside"
       id="path7342"
       style="fill:#afafde;fill-rule:evenodd;stroke:none;stroke-linejoin:round"
       inkscape:box3dsidetype="13"
       d="m 14.712812,17.941343 7.140947,-0.271147 2.582688,0.211224 -6.492354,0.164346 z"
       points="21.853759,17.670196 24.436447,17.88142 17.944093,18.045766 14.712812,17.941343 " />
    <path
       sodipodi:type="inkscape:box3dside"
       id="path7340"
       style="fill:#d7d7ff;fill-rule:evenodd;stroke:none;stroke-linejoin:round"
       inkscape:box3dsidetype="14"
       d="m 21.853759,8.6722444 v 8.9979516 l 2.582688,0.211224 v -6.707557 z"
       points="21.853759,17.670196 24.436447,17.88142 24.436447,11.173863 21.853759,8.6722444 " />
    <path
       sodipodi:type="inkscape:box3dside"
       id="path7338"
       style="fill:#8686bf;fill-rule:evenodd;stroke:none;stroke-linejoin:round"
       inkscape:box3dsidetype="3"
       d="m 14.712812,11.883567 7.140947,-3.2113226 v 8.9979516 l -7.140947,0.271147 z"
       points="21.853759,8.6722444 21.853759,17.670196 14.712812,17.941343 14.712812,11.883567 " />
  </g>
  <g
     id="g7387"
     transform="matrix(1.1951022,0,0,1.209949,-2.8365789,-6.3725835)"
     style="fill:none;fill-opacity:1;stroke:#0f0f0f;stroke-opacity:1;stroke-width:0.52889695;stroke-miterlimit:4;stroke-dasharray:none">
    <path
       inkscape:connector-curvature="0"
       id="path7372"
       d="m 8.5636314,25.045477 2.5953966,0 v -5.966214 h 2.828427 v 5.966744 -7.380957 h 3.226175 l -0.0092,7.37393 0.0092,-4.059367 h 3.668116 v 4.062761 l 2.073288,0.0046"
       style="fill:none;fill-opacity:1;stroke:#0f0f0f;stroke-width:0.52889695;stroke-linecap:round;stroke-linejoin:round;stroke-miterlimit:4;stroke-dasharray:none;stroke-opacity:1"
       sodipodi:nodetypes="cccccccccccc" />
    <path
       inkscape:connector-curvature="0"
       id="path7380"
       d="m 14.318912,17.642952 v -1.038563 h 2.583432 v 1.087017"
       style="fill:none;stroke:#0f0f0f;stroke-width:0.52889695;stroke-linecap:round;stroke-linejoin:round;stroke-miterlimit:4;stroke-dasharray:none;stroke-opacity:1;fill-opacity:1" />
    <path
       inkscape:connector-curvature="0"
       id="path7382"
       d="M 15.640625,16.609375 V 14.28125"
       style="fill:none;stroke:#0f0f0f;stroke-width:0.52889695;stroke-linecap:round;stroke-linejoin:round;stroke-miterlimit:4;stroke-dasharray:none;stroke-opacity:1;fill-opacity:1" />
  </g>
  <path
     style="fill:none;stroke:#0f0f0f;stroke-width:0.63599998;stroke-linecap:round;stroke-linejoin:round;stroke-miterlimit:4;stroke-dasharray:none;stroke-opacity:1"
     d="m 12.1875,17.734375 c 0.0139,-0.901229 -0.0182,2.806032 0,5.34375"
     id="path7414"
     inkscape:connector-curvature="0"
     sodipodi:nodetypes="cc" />
  <circle
     style="opacity:1;fill:#0e0e0e;fill-opacity:1;stroke:none;stroke-width:0.63599998;stroke-linecap:round;stroke-linejoin:miter;stroke-miterlimit:4;stroke-dasharray:none;stroke-dashoffset:0;stroke-opacity:1;paint-order:stroke fill markers"
     id="path7722-1"
     cx="16.335938"
     cy="20.720806"
     r="0.30000001" />
  <circle
     style="opacity:1;fill:#0e0e0e;fill-opacity:1;stroke:none;stroke-width:0.63599998;stroke-linecap:round;stroke-linejoin:miter;stroke-miterlimit:4;stroke-dasharray:none;stroke-dashoffset:0;stroke-opacity:1;paint-order:stroke fill markers"
     id="path7722-1-3"
     cx="16.335938"
     cy="15.917969"
     r="0.30000001" />
  <circle
     style="opacity:1;fill:#0e0e0e;fill-opacity:1;stroke:none;stroke-width:0.63599998;stroke-linecap:round;stroke-linejoin:miter;stroke-miterlimit:4;stroke-dasharray:none;stroke-dashoffset:0;stroke-opacity:1;paint-order:stroke fill markers"
     id="path7722-1-8"
     cx="16.335938"
     cy="19.520096"
     r="0.30000001" />
  <circle
     style="opacity:1;fill:#0e0e0e;fill-opacity:1;stroke:none;stroke-width:0.63599998;stroke-linecap:round;stroke-linejoin:miter;stroke-miterlimit:4;stroke-dasharray:none;stroke-dashoffset:0;stroke-opacity:1;paint-order:stroke fill markers"
     id="path7722-1-3-2"
     cx="16.335938"
     cy="18.319387"
     r="0.30000001" />
  <circle
     style="opacity:1;fill:#0e0e0e;fill-opacity:1;stroke:none;stroke-width:0.63599998;stroke-linecap:round;stroke-linejoin:miter;stroke-miterlimit:4;stroke-dasharray:none;stroke-dashoffset:0;stroke-opacity:1;paint-order:stroke fill markers"
     id="path7722-1-5"
     cx="16.335938"
     cy="17.118679"
     r="0.30000001" />
  <circle
     style="opacity:1;fill:#0e0e0e;fill-opacity:1;stroke:none;stroke-width:0.63599998;stroke-linecap:round;stroke-linejoin:miter;stroke-miterlimit:4;stroke-dasharray:none;stroke-dashoffset:0;stroke-opacity:1;paint-order:stroke fill markers"
     id="path7722-1-3-9"
     cx="16.335938"
     cy="21.921516"
     r="0.30000001" />
  <circle
     style="opacity:1;fill:#0e0e0e;fill-opacity:1;stroke:none;stroke-width:0.63599998;stroke-linecap:round;stroke-linejoin:miter;stroke-miterlimit:4;stroke-dasharray:none;stroke-dashoffset:0;stroke-opacity:1;paint-order:stroke fill markers"
     id="path7722-1-2"
     cx="16.335938"
     cy="23.122225"
     r="0.30000001" />
  <circle
     style="opacity:1;fill:#0e0e0e;fill-opacity:1;stroke:none;stroke-width:0.63599998;stroke-linecap:round;stroke-linejoin:miter;stroke-miterlimit:4;stroke-dasharray:none;stroke-dashoffset:0;stroke-opacity:1;paint-order:stroke fill markers"
     id="path7722-1-83"
     cx="15.296875"
     cy="20.719503"
     r="0.30000001" />
  <circle
     style="opacity:1;fill:#0e0e0e;fill-opacity:1;stroke:none;stroke-width:0.63599998;stroke-linecap:round;stroke-linejoin:miter;stroke-miterlimit:4;stroke-dasharray:none;stroke-dashoffset:0;stroke-opacity:1;paint-order:stroke fill markers"
     id="path7722-1-3-3"
     cx="15.296875"
     cy="15.914062"
     r="0.30000001" />
  <circle
     style="opacity:1;fill:#0e0e0e;fill-opacity:1;stroke:none;stroke-width:0.63599998;stroke-linecap:round;stroke-linejoin:miter;stroke-miterlimit:4;stroke-dasharray:none;stroke-dashoffset:0;stroke-opacity:1;paint-order:stroke fill markers"
     id="path7722-1-8-1"
     cx="15.296875"
     cy="19.518143"
     r="0.30000001" />
  <circle
     style="opacity:1;fill:#0e0e0e;fill-opacity:1;stroke:none;stroke-width:0.63599998;stroke-linecap:round;stroke-linejoin:miter;stroke-miterlimit:4;stroke-dasharray:none;stroke-dashoffset:0;stroke-opacity:1;paint-order:stroke fill markers"
     id="path7722-1-3-2-4"
     cx="15.296875"
     cy="18.316784"
     r="0.30000001" />
  <circle
     style="opacity:1;fill:#0e0e0e;fill-opacity:1;stroke:none;stroke-width:0.63599998;stroke-linecap:round;stroke-linejoin:miter;stroke-miterlimit:4;stroke-dasharray:none;stroke-dashoffset:0;stroke-opacity:1;paint-order:stroke fill markers"
     id="path7722-1-5-7"
     cx="15.296875"
     cy="17.115423"
     r="0.30000001" />
  <circle
     style="opacity:1;fill:#0e0e0e;fill-opacity:1;stroke:none;stroke-width:0.63599998;stroke-linecap:round;stroke-linejoin:miter;stroke-miterlimit:4;stroke-dasharray:none;stroke-dashoffset:0;stroke-opacity:1;paint-order:stroke fill markers"
     id="path7722-1-3-9-9"
     cx="15.296875"
     cy="21.920864"
     r="0.30000001" />
  <circle
     style="opacity:1;fill:#0e0e0e;fill-opacity:1;stroke:none;stroke-width:0.63599998;stroke-linecap:round;stroke-linejoin:miter;stroke-miterlimit:4;stroke-dasharray:none;stroke-dashoffset:0;stroke-opacity:1;paint-order:stroke fill markers"
     id="path7722-1-2-8"
     cx="15.296875"
     cy="23.122225"
     r="0.30000001" />
  <rect
     style="opacity:1;fill:none;fill-opacity:1;stroke:#0f0f0f;stroke-width:0.43599999;stroke-linecap:round;stroke-linejoin:miter;stroke-miterlimit:4;stroke-dasharray:none;stroke-dashoffset:0;stroke-opacity:1;paint-order:stroke fill markers"
     id="rect7824"
     width="2.3372502"
     height="2.3372502"
     x="18.812666"
     y="20.357105"
     rx="0.1" />
  <path
     style="fill:none;stroke:#000000;stroke-width:0.43599999;stroke-linecap:butt;stroke-linejoin:miter;stroke-miterlimit:4;stroke-dasharray:none;stroke-opacity:1"
     d="m 19.975767,20.371157 c 0,2.331243 0,2.331243 0,2.331243"
     id="path7826"
     inkscape:connector-curvature="0" />
  <path
     style="fill:none;stroke:#000000;stroke-width:0.43599999;stroke-linecap:butt;stroke-linejoin:miter;stroke-miterlimit:4;stroke-dasharray:none;stroke-opacity:1"
     d="m 18.870912,21.542303 h 2.287049"
     id="path7828"
     inkscape:connector-curvature="0" />
  <path
     style="fill:none;stroke:#0f0f0f;stroke-width:0.636;stroke-linecap:butt;stroke-linejoin:miter;stroke-opacity:1;stroke-miterlimit:4;stroke-dasharray:none"
     d="m 10.4996,23.931166 11.619642,-0.0038"
     id="path903"
     inkscape:connector-curvature="0" />
  <path
     style="opacity:1;fill:#ffffff;fill-opacity:1;stroke:#0f0f0f;stroke-width:0.0099375;stroke-linecap:round;stroke-linejoin:round;stroke-miterlimit:4;stroke-dasharray:none;stroke-dashoffset:0;stroke-opacity:1;paint-order:stroke fill markers"
     d="m 10.820829,20.323631 v -3.28125 h 1.367188 1.367187 v 3.28125 3.28125 h -1.367187 -1.367188 z m 1.510791,3.038546 c 0.04963,-0.02473 0.09621,-0.0638 0.124161,-0.104132 l 0.04474,-0.06455 0.004,-2.837618 0.004,-2.837618 -0.03528,-0.06976 c -0.05193,-0.102678 -0.144132,-0.161012 -0.266071,-0.168333 -0.121663,-0.0073 -0.21552,0.03746 -0.284834,0.135833 l -0.04687,0.06653 -0.01359,2.135396 c -0.0077,1.210236 -0.0077,2.447311 0,2.855341 l 0.01359,0.719946 0.04192,0.06329 c 0.05131,0.07747 0.177576,0.145255 0.270581,0.145255 0.03736,0 0.09737,-0.01654 0.143603,-0.03958 z"
     id="path905"
     inkscape:connector-curvature="0" />
  <path
     style="opacity:1;fill:#ffffff;fill-opacity:1;stroke:#0f0f0f;stroke-width:0.0099375;stroke-linecap:round;stroke-linejoin:round;stroke-miterlimit:4;stroke-dasharray:none;stroke-dashoffset:0;stroke-opacity:1;paint-order:stroke fill markers"
     d="m 14.195791,19.47113 v -4.140849 l 1.542969,0.0059 c 0.848633,0.0032 1.572851,0.01111 1.609375,0.01749 l 0.06641,0.0116 v 1.425453 c 0,0.783998 -0.0047,2.63951 -0.0104,4.123358 l -0.0104,2.697907 h -1.598974 -1.598973 z m 1.276763,3.897052 c 0.192806,-0.153389 0.159833,-0.436361 -0.06163,-0.528895 -0.196718,-0.08219 -0.416778,0.06703 -0.417914,0.283394 -4.45e-4,0.08477 0.01719,0.128843 0.08035,0.200774 0.07046,0.08024 0.126323,0.10247 0.242944,0.09665 0.08029,-0.004 0.107307,-0.01298 0.15625,-0.05192 z m 1.034015,0.0046 c 0.192547,-0.127422 0.172384,-0.414031 -0.0365,-0.518886 -0.08503,-0.04268 -0.148209,-0.04833 -0.228976,-0.02048 -0.203382,0.07014 -0.27409,0.30668 -0.14333,0.479477 0.0886,0.117088 0.280003,0.145126 0.408808,0.05989 z m -1.096951,-1.168051 c 0.103467,-0.03909 0.191442,-0.171304 0.19208,-0.288664 4.84e-4,-0.0891 -0.05699,-0.193091 -0.137722,-0.249195 -0.05794,-0.04026 -0.08208,-0.04708 -0.166623,-0.04708 -0.08455,0 -0.108685,0.0068 -0.166622,0.04708 -0.248738,0.172858 -0.138235,0.551361 0.161699,0.553866 0.04026,3.36e-4 0.093,-0.0069 0.117188,-0.01601 z m 1.06714,-0.01449 c 0.146528,-0.07475 0.206683,-0.269922 0.128324,-0.416337 -0.04286,-0.08008 -0.178512,-0.161758 -0.268666,-0.161758 -0.09469,0 -0.228665,0.08379 -0.272004,0.170114 -0.07364,0.146676 -0.01547,0.331266 0.128311,0.407203 0.07765,0.04101 0.204498,0.04135 0.284035,7.79e-4 z m -0.0031,-1.199347 c 0.0701,-0.03226 0.137648,-0.118472 0.158869,-0.202749 0.03313,-0.131581 -0.04034,-0.281382 -0.171063,-0.348777 -0.05386,-0.02777 -0.201113,-0.02513 -0.25788,0.0046 -0.10898,0.05711 -0.169303,0.15598 -0.16919,0.277289 2.17e-4,0.230768 0.224529,0.368448 0.439264,0.269614 z m -1.026322,-0.0067 c 0.03328,-0.0187 0.07994,-0.06205 0.10369,-0.09632 0.03674,-0.05302 0.04318,-0.07805 0.04318,-0.167772 0,-0.09201 -0.006,-0.11392 -0.04687,-0.17182 -0.06002,-0.08498 -0.14727,-0.130527 -0.25,-0.130527 -0.300387,0 -0.418946,0.395287 -0.166564,0.555343 0.09215,0.05844 0.224101,0.06306 0.316566,0.0111 z m 0.01285,-1.213323 c 0.04414,-0.02666 0.08224,-0.0666 0.105469,-0.110596 0.138969,-0.263134 -0.147581,-0.547912 -0.412832,-0.410279 -0.143001,0.0742 -0.201884,0.265228 -0.12564,0.407598 0.08795,0.164238 0.269837,0.211819 0.433003,0.113277 z m 0.95935,0.04308 c 0.09003,-0.025 0.177995,-0.112822 0.205387,-0.20506 0.03463,-0.116597 0.0091,-0.215769 -0.07797,-0.302831 -0.07468,-0.07468 -0.133544,-0.09311 -0.258923,-0.08106 -0.145407,0.01397 -0.256062,0.145297 -0.253978,0.301419 0.0017,0.127871 0.0811,0.237964 0.202928,0.281394 0.07398,0.02637 0.105827,0.02744 0.182555,0.0061 z M 15.44719,18.57998 c 0.03358,-0.01713 0.08039,-0.06038 0.104035,-0.0961 0.03609,-0.05454 0.04299,-0.08165 0.04299,-0.168996 0,-0.08817 -0.0066,-0.113541 -0.04318,-0.166353 -0.130892,-0.188878 -0.427315,-0.172453 -0.524877,0.02908 -0.13269,0.2741 0.147536,0.541897 0.421039,0.402366 z m 0.99518,0.02333 c 0.122595,-0.05121 0.195368,-0.155587 0.195368,-0.280209 0,-0.176673 -0.126665,-0.3049 -0.301186,-0.3049 -0.322623,0 -0.422449,0.425687 -0.133804,0.570579 0.08911,0.04473 0.157408,0.04887 0.239622,0.01453 z m -0.980429,-1.232051 c 0.11919,-0.07888 0.168086,-0.228349 0.117785,-0.36006 -0.114123,-0.298827 -0.557416,-0.241087 -0.583714,0.07603 -0.01192,0.14373 0.07671,0.279407 0.210465,0.322204 0.07028,0.02249 0.191079,0.0044 0.255464,-0.03817 z m 1.044645,-3.26e-4 c 0.175377,-0.121537 0.174645,-0.388567 -0.0014,-0.505059 -0.05451,-0.03607 -0.08166,-0.04298 -0.168801,-0.04298 -0.08714,0 -0.114295,0.0069 -0.168801,0.04299 -0.189932,0.125691 -0.174368,0.414895 0.02818,0.52356 0.093,0.04989 0.223312,0.04214 0.310812,-0.0185 z m -1.09568,-1.17379 c 0.214626,-0.08968 0.254902,-0.361701 0.07672,-0.518149 -0.0638,-0.05602 -0.135058,-0.07469 -0.239923,-0.06287 -0.125256,0.01412 -0.239022,0.131384 -0.251286,0.259016 -0.02277,0.237009 0.201299,0.411082 0.414492,0.322004 z m 1.095646,-0.02751 c 0.176512,-0.11681 0.174616,-0.383178 -0.0036,-0.506686 -0.05264,-0.03648 -0.07828,-0.04318 -0.165212,-0.04318 -0.125575,0 -0.201877,0.04087 -0.257755,0.138078 -0.06947,0.120851 -0.06629,0.225756 0.01029,0.338867 0.08602,0.12706 0.282471,0.161474 0.41628,0.07292 z"
     id="path913"
     inkscape:connector-curvature="0" />
  <path
     style="opacity:1;fill:#ffffff;fill-opacity:1;stroke:#0f0f0f;stroke-width:0.0099375;stroke-linecap:round;stroke-linejoin:round;stroke-miterlimit:4;stroke-dasharray:none;stroke-dashoffset:0;stroke-opacity:1;paint-order:stroke fill markers"
     d="m 18.055166,21.473895 v -2.143166 h 1.867187 1.867188 v 2.132813 2.132812 h -1.231814 c -0.677498,0 -1.517733,0.0047 -1.867188,0.01035 l -0.635373,0.01035 z m 3.063551,1.433274 c 0.05375,-0.01153 0.100447,-0.03514 0.139788,-0.07068 0.115575,-0.104415 0.109161,-0.02757 0.109161,-1.307885 0,-0.692383 -0.0059,-1.164568 -0.01493,-1.188228 -0.0082,-0.02159 -0.04072,-0.06781 -0.07224,-0.102705 -0.103023,-0.114034 -0.07316,-0.11165 -1.336515,-0.10666 -1.106249,0.0044 -1.115888,0.0047 -1.177877,0.0379 -0.07827,0.04195 -0.10716,0.07375 -0.147235,0.1621 -0.03099,0.06832 -0.03177,0.09753 -0.03196,1.195032 l -1.91e-4,1.125 0.03772,0.08103 c 0.0406,0.0872 0.123451,0.155246 0.215651,0.177115 0.08385,0.01989 2.18515,0.01803 2.27862,-0.002 z"
     id="path915"
     inkscape:connector-curvature="0" />
  <path
     style="opacity:1;fill:#ffffff;fill-opacity:1;stroke:#0f0f0f;stroke-width:0.0099375;stroke-linecap:round;stroke-linejoin:round;stroke-miterlimit:4;stroke-dasharray:none;stroke-dashoffset:0;stroke-opacity:1;paint-order:stroke fill markers"
     d="m 14.602041,14.361979 v -0.3125 h 1.21875 1.21875 v 0.3125 0.3125 h -1.21875 -1.21875 z"
     id="path917"
     inkscape:connector-curvature="0" />
  <path
     style="opacity:1;fill:#ffffff;fill-opacity:1;stroke:#0f0f0f;stroke-width:0.0099375;stroke-linecap:round;stroke-linejoin:round;stroke-miterlimit:4;stroke-dasharray:none;stroke-dashoffset:0;stroke-opacity:1;paint-order:stroke fill markers"
     d="m 20.195791,22.119792 v -0.351563 h 0.367187 0.367188 v 0.351563 0.351562 h -0.367188 -0.367187 z"
     id="path919"
     inkscape:connector-curvature="0" />
  <path
     style="opacity:1;fill:#ffffff;fill-opacity:1;stroke:#0f0f0f;stroke-width:0.0099375;stroke-linecap:round;stroke-linejoin:round;stroke-miterlimit:4;stroke-dasharray:none;stroke-dashoffset:0;stroke-opacity:1;paint-order:stroke fill markers"
     d="m 19.039541,22.119792 v -0.351563 h 0.359375 0.359375 v 0.351563 0.351562 h -0.359375 -0.359375 z"
     id="path921"
     inkscape:connector-curvature="0" />
  <path
     style="opacity:1;fill:#ffffff;fill-opacity:1;stroke:#0f0f0f;stroke-width:0.0099375;stroke-linecap:round;stroke-linejoin:round;stroke-miterlimit:4;stroke-dasharray:none;stroke-dashoffset:0;stroke-opacity:1;paint-order:stroke fill markers"
     d="m 19.039541,20.947917 v -0.367188 h 0.359375 0.359375 v 0.367188 0.367187 h -0.359375 -0.359375 z"
     id="path923"
     inkscape:connector-curvature="0" />
  <path
     style="opacity:1;fill:#ffffff;fill-opacity:1;stroke:#0f0f0f;stroke-width:0.0099375;stroke-linecap:round;stroke-linejoin:round;stroke-miterlimit:4;stroke-dasharray:none;stroke-dashoffset:0;stroke-opacity:1;paint-order:stroke fill markers"
     d="m 20.195791,20.947917 v -0.367188 h 0.367187 0.367188 v 0.367188 0.367187 h -0.367188 -0.367187 z"
     id="path925"
     inkscape:connector-curvature="0" />
</svg>
